<?xml version="1.0" encoding="UTF-8"?><svg id="Vertical" xmlns="http://www.w3.org/2000/svg" viewBox="0 0 1400.05 1156.75"><defs><style>.cls-1{fill:#4f9cce;stroke:#4f9cce;}.cls-1,.cls-2,.cls-3{stroke-miterlimit:10;stroke-width:2px;}.cls-2{fill:#7cc7b3;stroke:#7cc7b3;}.cls-3{stroke:#4e9cce;}.cls-3,.cls-4{fill:#4e9cce;}.cls-5{fill:#7bc7b3;}</style></defs><g><path class="cls-3" d="m212.65,819.08v-98.53c0-3.41,1.15-6.44,3.45-9.08,2.3-2.53,5.01-3.8,8.11-3.8h4.96c3.1,0,5.81,1.27,8.11,3.8,1.1,1.21,2,2.7,2.7,4.46l32.44,88.79,32.44-88.96c1-2.42,2.5-4.37,4.51-5.86,2-1.49,4.1-2.23,6.31-2.23h4.96c3.1,0,5.81,1.27,8.11,3.8,2.3,2.64,3.45,5.67,3.45,9.08v98.53c0,2.64-.83,4.87-2.48,6.68-1.65,1.82-3.66,2.72-6.01,2.72s-4.43-.94-6.23-2.81c-1.7-1.87-2.55-4.07-2.55-6.6v-83.67l-31.24,84.83c-.9,2.42-2.4,4.4-4.51,5.94s-4.36,2.31-6.76,2.31c-3.41,0-6.31-1.38-8.71-4.13-1.1-1.1-1.95-2.48-2.55-4.13l-31.24-84.83v83.67c0,2.53-.85,4.73-2.55,6.6-1.8,1.87-3.88,2.81-6.23,2.81s-4.36-.91-6.01-2.72c-1.65-1.82-2.48-4.04-2.48-6.68Z"/><path class="cls-3" d="m384.23,819.08v-41.42l-35.74-54.96c-.9-1.98-1.35-3.8-1.35-5.45,0-2.75.83-5.03,2.48-6.85,1.65-1.82,3.68-2.72,6.08-2.72,3.1,0,5.56,1.54,7.36,4.62l29.89,47.86c20.12-32.24,30.24-48.46,30.34-48.69,1-1.43,2.12-2.42,3.38-2.97,1.25-.55,2.48-.83,3.68-.83,2.3,0,4.28.91,5.93,2.72s2.48,3.99,2.48,6.52c0,1.54-.45,3.47-1.35,5.78l-35.89,54.96v41.42c0,2.64-.83,4.87-2.48,6.68s-3.66,2.72-6.01,2.72-4.43-.94-6.23-2.81c-1.7-1.87-2.55-4.07-2.55-6.6Z"/><path class="cls-3" d="m538.96,811.49v7.59c0,2.64-.83,4.87-2.48,6.68s-3.71,2.72-6.16,2.72-4.53-.88-6.23-2.64c-1.6-1.76-2.4-4.02-2.4-6.77v-4.95c0-5.39-.4-10.29-1.2-14.69-1-4.95-3.15-8.97-6.46-12.05-3.21-3.08-7.81-4.62-13.82-4.62h-29.29v36.31c0,2.53-.85,4.73-2.55,6.6-1.8,1.87-3.88,2.81-6.23,2.81s-4.36-.91-6.01-2.72c-1.65-1.82-2.48-4.04-2.48-6.68v-101c0-2.53.85-4.79,2.55-6.77,1.7-1.87,3.7-2.81,6.01-2.81h34.99c15.42,0,26.88,4.13,34.39,12.38,5.51,6.05,8.26,13.75,8.26,23.11,0,7.04-1.75,13.42-5.26,19.14-2.91,4.51-6.71,8.09-11.41,10.73,5.01,2.64,8.76,6.99,11.26,13.04,3,7.37,4.51,15.57,4.51,24.59Zm-16.37-65.85c0-1.32-.05-2.48-.15-3.47-.1-.99-.25-1.9-.45-2.72-.2-.83-.5-1.62-.9-2.39-.9-2.31-2.4-4.18-4.51-5.61-4.11-3.19-11.11-4.79-21.03-4.79h-24.63v37.96h25.38c10.01,0,17.37-2.53,22.08-7.59,2.8-3.19,4.21-6.99,4.21-11.39Z"/><path class="cls-3" d="m608.86,706.86c15.82,0,28.63,5.39,38.45,16.17,3.6,3.96,6.56,8.36,8.86,13.2,4.6,9.46,7.01,20.08,7.21,31.85-.2,11.77-2.5,22.23-6.91,31.36-4.61,9.46-11.01,16.81-19.22,22.03-8.21,5.22-17.7,7.84-28.46,7.84s-20.3-2.64-28.61-7.92c-8.01-5.17-14.27-12.38-18.77-21.62s-6.86-19.8-7.06-31.69c.2-13.97,3.35-26.08,9.46-36.31,4.21-7.04,9.76-12.76,16.67-17.16,8.21-5.17,17.67-7.76,28.38-7.76Zm32.74,38.95c-3-6.6-7.34-11.74-12.99-15.43-5.66-3.69-12.24-5.53-19.75-5.53-9.11,0-16.87,2.75-23.28,8.25-3.9,3.41-7.06,7.65-9.46,12.71-3,6.49-4.51,13.92-4.51,22.28,0,10.78,2.45,20.03,7.36,27.73,2.7,4.18,6.06,7.54,10.06,10.07,5.61,3.63,12.26,5.45,19.97,5.45s14.17-1.87,19.67-5.61c5.61-3.74,9.91-8.86,12.92-15.35,3-6.49,4.51-13.89,4.51-22.2s-1.5-15.76-4.51-22.36Z"/><path class="cls-2" d="m682.65,818.26v-100.18c0-2.53.85-4.79,2.55-6.77,1.7-1.87,3.7-2.81,6.01-2.81h35.44c12.21,0,21.53,3.52,27.93,10.56,5,5.5,7.51,12.6,7.51,21.29s-2.5,15.62-7.51,21.12c-1.4,1.54-2.91,2.86-4.51,3.96,4.9,2.31,8.91,5.45,12.01,9.41,3.91,5.06,5.86,11.22,5.86,18.48,0,11.22-3.51,19.8-10.51,25.75-6.91,5.72-16.87,8.58-29.89,8.58h-36.34c-2.4,0-4.43-.91-6.08-2.72-1.65-1.82-2.48-4.04-2.48-6.68Zm62.78-76.5c0-4.68-1.75-8.39-5.26-11.14-3.51-2.75-8.36-4.13-14.57-4.13h-25.68v31.85h23.13c9.11,0,15.32-1.82,18.62-5.45,2.5-2.75,3.75-6.46,3.75-11.14Zm-4.36,65.93c6.71-2.42,10.06-7.37,10.06-14.85,0-4.51-1.2-8.03-3.6-10.56-3.81-4.29-10.86-6.44-21.18-6.44h-26.43v33.67c0,.11.05.17.15.17h26.13c6.11,0,11.06-.66,14.87-1.98Z"/><path class="cls-2" d="m779.59,819.08c0-1.1.3-2.42.9-3.96l38.3-99.52c1-2.42,2.38-4.35,4.13-5.78,1.75-1.43,3.83-2.15,6.23-2.15h1.5c3.8,0,6.86,1.82,9.16,5.45.4.77.8,1.6,1.2,2.48l38.3,99.52c.6,1.65.9,2.97.9,3.96,0,2.64-.83,4.87-2.48,6.68-1.65,1.82-3.68,2.72-6.08,2.72s-4.56-.88-6.16-2.64c-.8-.88-1.45-1.98-1.95-3.3l-9.31-24.43h-48.66l-9.31,24.43c-.7,1.87-1.78,3.33-3.23,4.37-1.45,1.04-3.08,1.57-4.88,1.57-2.5,0-4.56-.94-6.16-2.81-1.6-1.87-2.4-4.07-2.4-6.6Zm68.03-38.62l-17.72-46.71-17.72,46.71h35.44Z"/><path class="cls-2" d="m898.65,815.29v-98.03c0-2.53.85-4.79,2.55-6.77,1.7-1.87,3.73-2.81,6.08-2.81s4.38.94,6.08,2.81c1.7,1.87,2.55,4.13,2.55,6.77v91.43h47.31c2.4,0,4.45.94,6.16,2.81,1.7,1.87,2.55,4.1,2.55,6.68s-.85,4.81-2.55,6.68c-1.8,1.87-3.86,2.81-6.16,2.81h-53.32c-3.1,0-5.76-1.21-7.96-3.63-2.2-2.42-3.3-5.34-3.3-8.75Z"/><path class="cls-2" d="m978.59,819.08c0-1.1.3-2.42.9-3.96l38.3-99.52c1-2.42,2.38-4.35,4.13-5.78,1.75-1.43,3.83-2.15,6.23-2.15h1.5c3.8,0,6.86,1.82,9.16,5.45.4.77.8,1.6,1.2,2.48l38.3,99.52c.6,1.65.9,2.97.9,3.96,0,2.64-.83,4.87-2.48,6.68-1.65,1.82-3.68,2.72-6.08,2.72s-4.56-.88-6.16-2.64c-.8-.88-1.45-1.98-1.95-3.3l-9.31-24.43h-48.66l-9.31,24.43c-.7,1.87-1.78,3.33-3.23,4.37-1.45,1.04-3.08,1.57-4.88,1.57-2.5,0-4.56-.94-6.16-2.81-1.6-1.87-2.4-4.07-2.4-6.6Zm68.03-38.62l-17.72-46.71-17.72,46.71h35.44Z"/><path class="cls-2" d="m1097.65,819.08v-98.53c0-3.41,1.15-6.44,3.45-9.08,2.3-2.53,5.01-3.8,8.11-3.8h1.95c3.7,0,6.96,1.87,9.76,5.61,0,.11,18.17,28.99,54.52,86.65v-82.68c0-2.53.85-4.79,2.55-6.77,1.7-1.87,3.73-2.81,6.08-2.81s4.38.94,6.08,2.81c1.7,1.87,2.55,4.13,2.55,6.77v98.53c0,3.41-1.15,6.38-3.45,8.91-2.4,2.53-5.16,3.8-8.26,3.8h-1.8c-2.5,0-4.81-.83-6.91-2.48-1-.77-1.85-1.7-2.55-2.81l-54.82-86.98v82.85c0,2.53-.85,4.73-2.55,6.6-1.8,1.87-3.88,2.81-6.23,2.81s-4.36-.91-6.01-2.72c-1.65-1.82-2.48-4.04-2.48-6.68Z"/><path class="cls-1" d="m148.98,1021.88v-92.59h-28.83c-2.3,0-4.23-.85-5.78-2.56-1.55-1.71-2.33-3.8-2.33-6.27s.8-4.65,2.4-6.52c1.6-1.76,3.5-2.64,5.71-2.64h74.79c2.3,0,4.25.88,5.86,2.64,1.6,1.76,2.4,3.88,2.4,6.35s-.8,4.6-2.4,6.35c-1.7,1.76-3.66,2.64-5.86,2.64h-28.69v92.59c0,2.53-.85,4.73-2.55,6.6-1.8,1.87-3.88,2.81-6.23,2.81s-4.36-.91-6.01-2.72c-1.65-1.81-2.48-4.04-2.48-6.68Z"/><path class="cls-1" d="m215.65,1021.88v-101.83c0-2.53.85-4.79,2.55-6.77,1.7-1.87,3.73-2.81,6.08-2.81s4.38.94,6.08,2.81c1.7,1.87,2.55,4.13,2.55,6.77v41.92h53.32v-41.92c0-2.53.85-4.79,2.55-6.77,1.7-1.87,3.73-2.81,6.08-2.81s4.38.94,6.08,2.81c1.7,1.87,2.55,4.13,2.55,6.77v101.83c0,2.53-.85,4.73-2.55,6.6-1.8,1.87-3.88,2.81-6.23,2.81s-4.36-.91-6.01-2.72c-1.65-1.81-2.48-4.04-2.48-6.68v-41.92h-53.32v41.92c0,2.53-.85,4.73-2.55,6.6-1.8,1.87-3.88,2.81-6.23,2.81s-4.36-.91-6.01-2.72c-1.65-1.81-2.48-4.04-2.48-6.68Z"/><path class="cls-1" d="m328.65,1021.06v-100.18c0-2.53.85-4.79,2.55-6.77,1.7-1.87,3.7-2.81,6.01-2.81h60.22c2.3,0,4.25.88,5.86,2.64,1.6,1.76,2.4,3.88,2.4,6.35s-.8,4.6-2.4,6.35c-1.7,1.76-3.66,2.64-5.86,2.64h-51.51v32.51h46.11c2.3,0,4.25.88,5.86,2.64,1.6,1.76,2.4,3.91,2.4,6.44s-.8,4.51-2.4,6.27c-1.7,1.76-3.66,2.64-5.86,2.64h-46.11v32.68h51.51c2.3,0,4.25.88,5.86,2.64,1.6,1.76,2.4,3.88,2.4,6.35s-.8,4.59-2.4,6.35c-1.7,1.76-3.66,2.64-5.86,2.64h-60.22c-2.4,0-4.43-.91-6.08-2.72-1.65-1.82-2.48-4.04-2.48-6.68Z"/><path class="cls-1" d="m509.96,1014.29v7.59c0,2.64-.83,4.87-2.48,6.68-1.65,1.82-3.71,2.72-6.16,2.72s-4.53-.88-6.23-2.64c-1.6-1.76-2.4-4.01-2.4-6.77v-4.95c0-5.39-.4-10.29-1.2-14.69-1-4.95-3.15-8.97-6.46-12.05-3.21-3.08-7.81-4.62-13.82-4.62h-29.29v36.31c0,2.53-.85,4.73-2.55,6.6-1.8,1.87-3.88,2.81-6.23,2.81s-4.36-.91-6.01-2.72c-1.65-1.81-2.48-4.04-2.48-6.68v-101c0-2.53.85-4.79,2.55-6.77,1.7-1.87,3.7-2.81,6.01-2.81h34.99c15.42,0,26.88,4.13,34.39,12.38,5.51,6.05,8.26,13.75,8.26,23.11,0,7.04-1.75,13.42-5.26,19.14-2.91,4.51-6.71,8.09-11.41,10.73,5.01,2.64,8.76,6.99,11.26,13.04,3,7.37,4.51,15.57,4.51,24.59Zm-16.37-65.85c0-1.32-.05-2.48-.15-3.47-.1-.99-.25-1.9-.45-2.72-.2-.83-.5-1.62-.9-2.39-.9-2.31-2.4-4.18-4.51-5.61-4.11-3.19-11.11-4.79-21.03-4.79h-24.63v37.96h25.38c10.01,0,17.37-2.53,22.08-7.59,2.8-3.19,4.21-6.99,4.21-11.39Z"/><path class="cls-1" d="m524.59,1021.88c0-1.1.3-2.42.9-3.96l38.3-99.52c1-2.42,2.38-4.34,4.13-5.78,1.75-1.43,3.83-2.15,6.23-2.15h1.5c3.8,0,6.86,1.82,9.16,5.45.4.77.8,1.6,1.2,2.48l38.3,99.52c.6,1.65.9,2.97.9,3.96,0,2.64-.83,4.87-2.48,6.68-1.65,1.82-3.68,2.72-6.08,2.72s-4.56-.88-6.16-2.64c-.8-.88-1.45-1.98-1.95-3.3l-9.31-24.43h-48.66l-9.31,24.43c-.7,1.87-1.78,3.33-3.23,4.37-1.45,1.04-3.08,1.57-4.88,1.57-2.5,0-4.56-.94-6.16-2.81-1.6-1.87-2.4-4.07-2.4-6.6Zm68.03-38.62l-17.72-46.71-17.72,46.71h35.44Z"/><path class="cls-1" d="m643.65,1021.88v-101c0-2.53.85-4.79,2.55-6.77,1.7-1.87,3.7-2.81,6.01-2.81h34.24c9.71,0,17.72,1.82,24.03,5.45,7.91,4.62,13.22,11.17,15.92,19.64,1.3,4.18,1.95,8.69,1.95,13.53,0,6.82-1.35,13.04-4.06,18.65-2.91,6.16-7.56,11.03-13.97,14.61-6.41,3.58-14.37,5.36-23.88,5.36h-25.53v33.34c0,2.53-.85,4.73-2.55,6.6-1.8,1.87-3.88,2.81-6.23,2.81s-4.36-.91-6.01-2.72c-1.65-1.81-2.48-4.04-2.48-6.68Zm67.43-71.96c0-6.6-2.15-11.66-6.46-15.18-4.31-3.52-10.81-5.28-19.52-5.28h-24.18v40.93h24.18c8.71,0,15.27-1.76,19.67-5.28l1.8-1.82c3-3.3,4.51-7.76,4.51-13.37Z"/><path class="cls-1" d="m744.65,1021.06v-100.18c0-2.53.85-4.79,2.55-6.77,1.7-1.87,3.7-2.81,6.01-2.81h60.22c2.3,0,4.25.88,5.86,2.64,1.6,1.76,2.4,3.88,2.4,6.35s-.8,4.6-2.4,6.35c-1.7,1.76-3.66,2.64-5.86,2.64h-51.51v32.51h46.11c2.3,0,4.25.88,5.86,2.64,1.6,1.76,2.4,3.91,2.4,6.44s-.8,4.51-2.4,6.27c-1.7,1.76-3.66,2.64-5.86,2.64h-46.11v32.68h51.51c2.3,0,4.25.88,5.86,2.64,1.6,1.76,2.4,3.88,2.4,6.35s-.8,4.59-2.4,6.35c-1.7,1.76-3.66,2.64-5.86,2.64h-60.22c-2.4,0-4.43-.91-6.08-2.72-1.65-1.82-2.48-4.04-2.48-6.68Z"/><path class="cls-1" d="m839.9,985.24v-65.19c0-2.53.85-4.79,2.55-6.77,1.7-1.87,3.73-2.81,6.08-2.81s4.38.94,6.08,2.81c1.7,1.87,2.55,4.13,2.55,6.77v65.69c0,6.38,1.3,11.61,3.91,15.68,1.1,1.87,2.2,3.41,3.3,4.62,1.9,1.98,4.1,3.69,6.61,5.12,4.3,2.2,8.91,3.3,13.82,3.3s9.46-1.1,13.67-3.3c4.41-2.31,7.83-5.64,10.29-9.99,2.45-4.34,3.68-9.49,3.68-15.43v-65.69c0-2.53.85-4.79,2.55-6.77,1.7-1.87,3.73-2.81,6.08-2.81s4.38.94,6.08,2.81c1.7,1.87,2.55,4.13,2.55,6.77v65.19c0,13.2-3.86,24.1-11.56,32.68-3.41,3.63-7.31,6.6-11.71,8.91-6.81,3.52-13.97,5.28-21.48,5.28s-14.67-1.71-21.48-5.12c-7.11-3.52-12.82-8.91-17.12-16.17-4.31-7.26-6.46-15.79-6.46-25.58Z"/><path class="cls-1" d="m978.98,1021.88v-92.59h-28.84c-2.3,0-4.23-.85-5.78-2.56-1.55-1.71-2.33-3.8-2.33-6.27s.8-4.65,2.4-6.52c1.6-1.76,3.5-2.64,5.71-2.64h74.79c2.3,0,4.25.88,5.86,2.64,1.6,1.76,2.4,3.88,2.4,6.35s-.8,4.6-2.4,6.35c-1.7,1.76-3.66,2.64-5.86,2.64h-28.69v92.59c0,2.53-.85,4.73-2.55,6.6-1.8,1.87-3.88,2.81-6.23,2.81s-4.36-.91-6.01-2.72c-1.65-1.81-2.48-4.04-2.48-6.68Z"/><path class="cls-1" d="m1045.65,1021.88v-101.83c0-2.53.85-4.79,2.55-6.77,1.7-1.87,3.73-2.81,6.08-2.81s4.38.94,6.08,2.81c1.7,1.87,2.55,4.13,2.55,6.77v101.83c0,2.53-.85,4.73-2.55,6.6-1.8,1.87-3.88,2.81-6.23,2.81s-4.36-.91-6.01-2.72c-1.65-1.81-2.48-4.04-2.48-6.68Z"/><path class="cls-1" d="m1082.34,970.72c0-15.07,3.65-28,10.96-38.78,4.21-6.16,9.36-11.11,15.47-14.85,8.21-4.95,17.52-7.43,27.93-7.43,6.81,0,12.92.85,18.32,2.56,5.41,1.71,10.96,4.32,16.67,7.84,2.9,1.54,4.36,4.24,4.36,8.09,0,2.09-.75,4.02-2.25,5.78-1.5,1.65-3.36,2.48-5.56,2.48-1.4,0-2.55-.27-3.45-.83-4.51-2.64-8.79-4.56-12.84-5.78-4.06-1.21-8.69-1.82-13.89-1.82-8.31,0-15.29,1.84-20.95,5.53-5.66,3.69-9.99,8.72-12.99,15.1-3,6.38-4.51,13.81-4.51,22.28s1.5,15.84,4.51,22.12c4.1,9.02,10.56,15.13,19.37,18.32,4.3,1.65,9.11,2.48,14.42,2.48s9.99-.6,14.04-1.82c4.05-1.21,8.33-3.14,12.84-5.78.9-.55,2.05-.83,3.45-.83,2.3,0,4.18.8,5.63,2.39,1.45,1.6,2.18,3.66,2.18,6.19,0,3.52-1.45,6.11-4.36,7.76-5.71,3.52-11.26,6.13-16.67,7.84-5.41,1.71-11.51,2.56-18.32,2.56-10.31,0-19.52-2.48-27.63-7.43-8.41-5.06-14.97-12.24-19.67-21.54-4.71-9.3-7.06-20.11-7.06-32.43Z"/><path class="cls-1" d="m1288.02,997.95c0,8.47-3.39,15.79-10.17,21.95-3.82,3.3-8.44,6-13.86,8.09-7.52,2.75-16.02,4.13-25.51,4.13-15.9,0-30.81-2.7-44.73-8.09-1.85-.66-3.42-1.79-4.71-3.38-1.29-1.59-1.94-3.33-1.94-5.2,0-2.53.95-4.65,2.87-6.35,1.91-1.7,4.22-2.56,6.93-2.56,1.6,0,3.08.28,4.44.83,11.09,4.4,22.92,6.6,35.49,6.6,16.27,0,25.94-3.63,29.02-10.89.74-1.76,1.11-3.85,1.11-6.27,0-2.64-1.11-4.84-3.33-6.6-1.6-1.21-2.96-2.09-4.07-2.64-1.73-.88-3.27-1.54-4.62-1.98-3.58-1.1-9.61-2.64-18.12-4.62-9.74-2.31-17.87-4.62-24.4-6.93-7.89-2.64-13.86-6.38-17.93-11.22-4.07-4.84-6.1-10.62-6.1-17.33,0-9.46,3.57-17.38,10.72-23.77,5.3-4.62,12.32-7.98,21.07-10.07,5.67-1.32,11.77-1.98,18.3-1.98,13.8,0,26.31,1.87,37.52,5.61,4.44,1.43,6.65,4.24,6.65,8.42,0,2.42-.99,4.51-2.96,6.27-1.97,1.76-4.19,2.64-6.65,2.64-1.11,0-2.34-.27-3.7-.83-9.37-2.86-19.04-4.29-29.02-4.29s-17.07,1.54-22.74,4.62c-5.3,2.97-7.95,7.04-7.95,12.21,0,3.41,1.23,6.11,3.7,8.09,2.83,2.2,6.13,3.96,9.89,5.28,3.76,1.32,9.7,2.81,17.84,4.46,10.35,2.2,18.3,4.35,23.84,6.44,6.9,2.31,12.48,5.92,16.73,10.81,4.25,4.9,6.38,11.09,6.38,18.57Z"/></g><g><path class="cls-5" d="m660.01,648.68l-18.3-3.92c-.23-.05-23.29-5.01-39.94-10.02-1.61-.49-3.29-.96-5.05-1.46-17.09-4.84-40.49-11.47-68.85-44.24-34.89-40.31-42.2-70.02-46.31-94.7-5.97-35.84-13.46-79.96-14.18-84.13-.2-1.15-.4-2.33-.61-3.56-1.43-8.47-3.21-19-7.21-33.06-5.56-19.57-32.24-66.51-32.5-66.98l-3.21-5.63,6.37,1.2c.23.04,23.74,4.46,53.2,10.81,63.62,13.69,74.18,18.72,91.67,27.06l.29.14c14.72,7.02,59.51,28.37,92.76,77.1,9.75,14.29,17.88,28.54,23.01,40.24,5.74-13.62,19.08-43.95,29.86-58.2,12.48-16.49,31.33-41.41,76.85-73,30.7-21.31,72.01-43.56,122.77-66.12,19.86-8.83,49.3-17.75,49.6-17.84l5.96-1.8-2.31,5.79c-.04.11-4.34,10.95-6.47,22.66-2.21,12.18-7.19,44.67-8.82,63.35-3.18,52.55-22.62,119.17-26.48,131.99-11.68,38.74-26.02,71.34-41.47,94.29-8.07,11.98-27.23,35.94-64.97,61.87-36.68,25.2-82.43,24.36-84.36,24.32l-7.73-.19,5.84-5.07c.16-.14,15.88-13.81,31.65-29.86,12.61-12.82,30.95-35.78,43.51-58.15l.08-.14c10.88-17.19,20.3-42.55,28.81-77.54,2.78-11.45,5.06-21.26,7.06-29.91,5.15-22.2,8.87-38.23,16.58-63.16,4.76-15.38,11.59-26.74,16.33-33.4-8.81,2.4-23.79,7.61-39.54,18.18-44.02,29.53-66.49,53.76-90.43,85.63-15.24,21.14-25.02,42.24-36.05,77.8-15.71,50.65-19.54,86.08-19.58,86.43l-5.97-.03c-.03-.3-2.98-30.03-16.87-70.69-15.45-45.24-39.52-75.96-52.5-90.25-23.35-25.71-45.45-38.88-58.66-46.75-11.27-6.72-25.51-11.72-34.59-14.53,5.48,7.39,13.65,19.95,20.24,36.58,4.71,11.88,5.7,20.59,6.75,29.82.27,2.39.55,4.85.9,7.39.86,6.27,1.59,12.35,2.28,18.23,3.18,26.82,5.93,49.97,19.96,77.8,14.81,29.38,26.45,45.75,42.95,60.39,10.65,9.45,21.41,15.78,21.52,15.84l16.15,9.45Z"/><g><path class="cls-4" d="m602.1,277.94c2.67,9.19,10.7,12.95,13.09,13.88,5.85,2.29,12.28,2.65,19.12,1.08h0s0,0,0,0c3.11-.71,6.15-1.77,9.05-3.16,2.9-1.59,10.09-5.73,14.26-8.93-.56-1.21-.89-2.55-.89-3.96,0-5.17,4.21-9.39,9.39-9.39s9.38,4.21,9.38,9.39-4.21,9.39-9.38,9.39c-1.3,0-2.55-.27-3.68-.75-5.47,4.39-15.5,9.88-15.97,10.14l-.15.08c-2.7,1.29-5.51,2.33-8.38,3.13-.42,2.65-.53,5.21-.31,7.76.81,9.27,5.44,15.53,14.16,19.16,3.85,1.57,9.36,1.99,14.22,2.36,2.26.17,4.39.33,6.38.6,6.25.85,14.66,3.5,19.3,11.28,2.62,4.34,3.79,7.95,4.95,12.75,1.43,5.93,2.62,15.08,2.89,22.25.09,2.45-.11,9.29-.62,16.27,2.13-4.57,4.31-9.91,6.27-15.71,2.81-8.33,5.2-20.39,5.82-29.33.6-8.97-3.14-22.17-5.07-28.73-4.09-2.99-7.11-7.17-9.17-12.76-.63-1.72.25-3.63,1.97-4.27,1.72-.63,3.63.25,4.27,1.97,1.72,4.67,4.21,8.02,7.61,10.24,1.49.98,3.18,1.76,5.17,2.39,8.07,2.56,12.39.79,14.01.13l.13-.05c4.54-1.8,7.91-5.71,10.06-11.65,3.2-10.77-2.04-21.56-2.09-21.67l-2.65-5.36,5.95.58c4.61.45,17.51,1.45,21.76.72l.12-.02c10.57-1.4,17.62-4.4,23.54-10.05,5.04-4.77,8.86-11.77,9.73-17.84l.02-.11c1.81-10.02,1.08-19.27-2.17-27.48-2.7-6.9-8.1-13.41-15.21-18.36-4.09-2.84-11.45-6.63-16.68-8.05,0,0,0,0,0,0,0,0,0,0,0,0-5.34-1.46-11.39-2.2-17.84-2.16-12.83.08-25.25,4.13-34.09,11.13-3.81,2.86-7.13,6.46-9.92,10.74-2.19,3.36-3.87,6.8-5,10.23-.64,2.18-1.11,4.46-1.36,6.7-.41,3.68-.36,8.9,2.17,12.88.71,1.1,1.62,2.1,2.67,2.93,4.88,3.83,9.72,4.83,16.14,3.23.92-4.21,4.68-7.38,9.16-7.38,5.17,0,9.38,4.21,9.38,9.39s-4.21,9.39-9.38,9.39c-3.51,0-6.56-1.94-8.18-4.79-1.95.45-4.06.76-6.3.76-4.63,0-9.77-1.31-14.94-5.37-1.63-1.29-3.02-2.82-4.15-4.56-2.84-4.47-3.93-10.41-3.18-17.2.29-2.63.84-5.3,1.62-7.95.68-2.09,1.53-4.15,2.52-6.17-.54.02-1.07.03-1.59.03-12.66,0-19.74-5.09-23.03-8.43-1.24.61-2.63.96-4.1.96-5.17,0-9.39-4.21-9.39-9.39s4.21-9.39,9.39-9.39,9.39,4.21,9.39,9.39c0,1.28-.26,2.5-.73,3.61,2.61,2.8,9.6,8.05,24.18,6.22,3.04-4.37,6.58-8.1,10.56-11.09,9.91-7.85,23.83-12.43,38.11-12.52,5.74-.02,11.17.51,16.19,1.57.41-2.12.72-3.85.86-4.67.98-5.82.41-10.68-1.85-15.76-2.85-6.69-7.52-10.91-15.17-13.76-6.73-2.48-18.32.65-22.22,2.07l-4.15,1.51-.3-4.41c0-.08-.6-8.27-3.58-15.38-4.1-9.76-16.35-14.59-25.82-13.63-1.07.11-10.72,1.35-19.06,10.78l-.48.54c-1.22,1.35-2.18,2.42-3.42,5.32,0,0,0,0,0,0,0,0,0,0,0,.01-1.08,2.49-1.77,5.01-2.05,7.51-.53,4.79.47,9.35,2.88,13.17l.17.25c.11.17.22.34.35.51,3.9,5.54,10.85,6.63,17.75,2.83,1.61-.89,3.63-.3,4.52,1.31.89,1.61.3,3.63-1.31,4.52-3.68,2.03-7.52,3.02-11.17,3.02-6.04,0-11.6-2.69-15.19-7.8-.15-.21-.33-.48-.5-.74l-.18-.27c-3.28-5.19-4.62-11.22-3.92-17.53.25-2.3.79-4.61,1.58-6.9-3.72-2.32-10-4.9-15.49-5.11-5.59-.23-11.86.36-19.79,6.14-3.17,2.29-8.96,7.64-12.14,17.73-2.97,9.35-1.5,26.14,7.56,31.19l18.69,10.41-20.97-4.25c-.12-.02-12.26-2.4-20.91.89-8.13,3.09-12.62,6.3-17.78,12.72-2.75,3.41-9.08,17.02-4.1,28.34,4.78,10.86,17.19,9.82,20.88,9.25,2.07-.31,4.04-1.01,6.01-2.11,2.64-5.04,6.94-9.78,13.32-16.09.41-.39.88-.79,1.41-1.18.8-2.56,1.34-5.06,1.6-7.47.14-1.3.21-2.5.2-3.64-.01-1.84,1.47-3.33,3.31-3.34h.02c1.83,0,3.31,1.48,3.32,3.31,0,1.4-.07,2.84-.24,4.41-.09.81-.21,1.63-.35,2.45,2.26-.95,4.62-1.74,6.73-2.14,5.61-1.05,10.58-.06,10.79-.02,1.8.37,2.96,2.12,2.59,3.92-.37,1.8-2.13,2.95-3.92,2.59-.03,0-3.94-.76-8.23.04-3.64.68-8.46,2.95-11.15,4.73-.85.57-1.29.96-1.45,1.11-6.04,5.97-10.25,10.61-12.41,15.12-2.01,4.19-3.82,10.24-4.1,11.41-1.43,5.83-1.32,10.58.39,16.41Z"/><path class="cls-4" d="m666.18,201.53c.48-.21.98-.28,1.47-.26.01-.16.05-.31.05-.47,0-2.64-2.15-4.79-4.79-4.79s-4.79,2.15-4.79,4.79,2.15,4.79,4.79,4.79c.48,0,.93-.09,1.37-.22-.38-1.54.39-3.18,1.9-3.83Z"/><path class="cls-4" d="m667.65,201.27c-.49-.02-.99.05-1.47.26-1.51.65-2.27,2.29-1.9,3.83,1.82-.55,3.18-2.15,3.37-4.1Z"/><path class="cls-4" d="m665.06,281.52c.34.08.7.13,1.07.13,2.64,0,4.79-2.15,4.79-4.79s-2.15-4.79-4.79-4.79-4.79,2.15-4.79,4.79c0,.54.11,1.05.28,1.54"/><path class="cls-4" d="m661.61,278.39c.53,1.55,1.83,2.75,3.45,3.12"/><path class="cls-4" d="m722.43,252.64c.56,1.62-.21,3.37-1.74,4.08.88.97,2.13,1.59,3.54,1.59,2.64,0,4.79-2.15,4.79-4.79s-2.15-4.79-4.79-4.79c-1.55,0-2.91.75-3.79,1.89.89.33,1.64,1.04,1.98,2.01Z"/><path class="cls-4" d="m720.7,256.72c1.52-.71,2.3-2.46,1.74-4.08-.34-.97-1.08-1.67-1.98-2.01-.62.81-1,1.8-1,2.9,0,1.23.48,2.34,1.25,3.19Z"/></g></g></svg>